<svg width="162" height="38" viewBox="0 0 162 38" fill="none" xmlns="http://www.w3.org/2000/svg">
<g clip-path="url(#clip0_145_940)">
<path d="M22.9771 1.20824L38.0901 16.7541C39.755 18.4669 40.2412 21.0048 39.3314 23.2111L34.1065 35.8637C33.4748 37.3905 31.7252 38.118 30.1984 37.4881C29.8245 37.3334 29.4857 37.105 29.202 36.8159L20.1353 27.5557L10.6413 37.1105C9.47549 38.2837 7.58221 38.2892 6.40904 37.1234C6.12173 36.8361 5.89336 36.4954 5.74234 36.1179L0.445583 22.9736C-0.456855 20.7359 0.0753995 18.1741 1.79187 16.4779L17.3138 1.15115C18.8811 -0.397729 21.4079 -0.381154 22.9568 1.18614C22.9642 1.19351 22.9715 1.20087 22.9789 1.20824H22.9771Z" fill="#5645F5"/>
<path d="M9.47313 16.6976L22.3375 29.7995L22.2712 29.7314C21.1146 28.5508 19.2195 28.5324 18.0389 29.6908C18.026 29.7037 18.0131 29.7166 18.0002 29.7277L17.9303 29.7995L10.6426 37.1185C9.47681 38.2898 7.58169 38.2935 6.41036 37.1277C6.12306 36.8422 5.89653 36.5015 5.74551 36.1258L0.391655 22.8342C-0.689429 20.1489 0.540833 17.088 3.18 15.9001C5.36611 14.9148 7.46382 15.1819 9.47497 16.6994L9.47313 16.6976Z" fill="#19156F"/>
<path d="M137.778 8.47778H123.293V13.0618H133.284L123.293 23.2538V27.8397H125.597H139.835V23.2538H130.015L139.835 13.0618V8.47778H137.778Z" fill="#100671"/>
<path d="M114.903 8.47778V9.92537C114.619 9.74856 114.326 9.58833 114.023 9.441C112.748 8.82587 111.317 8.47778 109.805 8.47778C104.46 8.47778 100.125 12.8095 100.125 18.156C100.125 23.5025 104.46 27.8378 109.805 27.8378C111.317 27.8378 112.748 27.4898 114.023 26.8728C114.325 26.7254 114.617 26.5652 114.903 26.3884V27.8378H119.487V8.47778H114.903ZM109.805 23.1949C107.024 23.1949 104.768 20.9388 104.768 18.1578C104.768 15.3768 107.024 13.1207 109.805 13.1207C112.586 13.1207 114.844 15.375 114.844 18.1578C114.844 20.9406 112.588 23.1949 109.805 23.1949Z" fill="#100671"/>
<path d="M157.145 8.47778V9.92537C156.861 9.74856 156.569 9.58833 156.265 9.441C154.99 8.82587 153.559 8.47778 152.047 8.47778C146.703 8.47778 142.367 12.8095 142.367 18.156C142.367 23.5025 146.703 27.8378 152.047 27.8378C153.559 27.8378 154.99 27.4898 156.265 26.8728C156.567 26.7254 156.86 26.5652 157.145 26.3884V27.8378H161.729V8.47778H157.145ZM152.047 23.1949C149.266 23.1949 147.01 20.9388 147.01 18.1578C147.01 15.3768 149.266 13.1207 152.047 13.1207C154.828 13.1207 157.086 15.375 157.086 18.1578C157.086 20.9406 154.83 23.1949 152.047 23.1949Z" fill="#100671"/>
<path d="M94.0234 8.40649L88.9918 19.8012L84.1905 8.40649H78.7188L86.2256 25.5583L81.4942 35.2752H87.0175L99.5669 8.40649H94.0234Z" fill="#100671"/>
<path d="M69.0935 8.24294C66.7159 8.24294 64.4929 9.21721 62.8925 10.9097C62.8409 10.8545 62.7875 10.8011 62.7341 10.7477C61.1189 9.13249 58.9715 8.24294 56.6878 8.24294C55.3396 8.24294 54.032 8.55787 52.8515 9.15275V8.24294H48.1367V28.4962H52.8515V17.0997C52.8515 14.9854 54.5717 13.2634 56.6878 13.2634C57.7136 13.2634 58.6768 13.6631 59.4006 14.3869C60.1244 15.1107 60.5241 16.0739 60.5241 17.0979V28.4944H65.2573V17.0979C65.2573 14.9836 66.9774 13.2616 69.0935 13.2616C70.1194 13.2616 71.0826 13.6613 71.8064 14.385C72.5302 15.1088 72.9298 16.072 72.9298 17.096V28.4925H77.6446V16.7885C77.6446 14.5048 76.755 12.3573 75.1399 10.744C73.5247 9.1288 71.3773 8.23926 69.0935 8.23926V8.24294Z" fill="#100671"/>
</g>
<defs>
<clipPath id="clip0_145_940">
<rect width="161.732" height="38" fill="white"/>
</clipPath>
</defs>
</svg>
