<svg width="45" height="41" viewBox="0 0 45 41" fill="none" xmlns="http://www.w3.org/2000/svg">
<path d="M20.8313 3.00883L8.53896 7.61782C3.7326 9.41996 1.87059 13.9553 3.90918 18.8984L8.61406 30.3065C10.6469 35.2356 15.2501 37.3468 20.0564 35.5447L32.3488 30.9357C37.1551 29.1335 39.003 24.6035 36.9701 19.6744L32.2653 8.2663C30.2267 3.32325 25.6377 1.20669 20.8313 3.00883Z" fill="url(#paint0_linear_2162_107999)"/>
<g opacity="0.5" filter="url(#filter0_f_2162_107999)">
<path d="M22.0851 8.01343L12.8568 11.468C9.50939 12.7211 8.25162 15.1405 9.43597 18.0361L13.4472 27.8429C14.651 30.7859 17.2756 31.7081 20.623 30.4551L29.8514 27.0005C33.2527 25.7272 34.4709 23.3664 33.2672 20.4234L29.2559 10.6166C28.0716 7.72104 25.4865 6.74017 22.0851 8.01343Z" fill="#5645F5"/>
</g>
<g filter="url(#filter1_b_2162_107999)">
<mask id="path-3-outside-1_2162_107999" maskUnits="userSpaceOnUse" x="12.7466" y="9.2605" width="33" height="32" fill="black">
<rect fill="white" x="12.7466" y="9.2605" width="33" height="32"/>
<path d="M35.7967 10.2605H22.4652C17.2525 10.2605 13.7466 13.7995 13.7466 19.0634V31.2119C13.7466 36.4609 17.2525 39.9999 22.4652 39.9999H35.7967C41.0094 39.9999 44.5 36.4609 44.5 31.2119V19.0634C44.5 13.7995 41.0094 10.2605 35.7967 10.2605Z"/>
</mask>
<path d="M35.7967 10.2605H22.4652C17.2525 10.2605 13.7466 13.7995 13.7466 19.0634V31.2119C13.7466 36.4609 17.2525 39.9999 22.4652 39.9999H35.7967C41.0094 39.9999 44.5 36.4609 44.5 31.2119V19.0634C44.5 13.7995 41.0094 10.2605 35.7967 10.2605Z" fill="#5645F5" fill-opacity="0.35"/>
<path d="M35.7967 10.6891C36.0334 10.6891 36.2253 10.4972 36.2253 10.2605C36.2253 10.0238 36.0334 9.83194 35.7967 9.83194V10.6891ZM35.7967 9.83194C35.5601 9.83194 35.3682 10.0238 35.3682 10.2605C35.3682 10.4972 35.5601 10.6891 35.7967 10.6891V9.83194ZM35.7967 9.83194H22.4652V10.6891H35.7967V9.83194ZM22.4652 9.83194C19.7592 9.83194 17.465 10.7525 15.8466 12.3864C14.2286 14.02 13.318 16.3343 13.318 19.0634H14.1751C14.1751 16.5285 15.0175 14.4414 16.4556 12.9896C17.8933 11.538 19.9584 10.6891 22.4652 10.6891V9.83194ZM13.318 19.0634V31.2119H14.1751V19.0634H13.318ZM13.318 31.2119C13.318 33.9338 14.2288 36.2445 15.8468 37.8761C17.4652 39.508 19.7593 40.4285 22.4652 40.4285V39.5714C19.9584 39.5714 17.8932 38.7224 16.4554 37.2725C15.0173 35.8224 14.1751 33.739 14.1751 31.2119H13.318ZM22.4652 40.4285H35.7967V39.5714H22.4652V40.4285ZM35.7967 40.4285C38.5027 40.4285 40.7932 39.5079 42.4078 37.8757C44.0219 36.2439 44.9285 33.9333 44.9285 31.2119H44.0714C44.0714 33.7396 43.2327 35.823 41.7984 37.2729C40.3646 38.7224 38.3035 39.5714 35.7967 39.5714V40.4285ZM44.9285 31.2119V19.0634H44.0714V31.2119H44.9285ZM44.9285 19.0634C44.9285 16.3349 44.0222 14.0206 42.408 12.3868C40.7933 10.7525 38.5027 9.83194 35.7967 9.83194V10.6891C38.3035 10.6891 40.3645 11.538 41.7983 12.9892C43.2325 14.4409 44.0714 16.528 44.0714 19.0634H44.9285Z" fill="url(#paint1_linear_2162_107999)" mask="url(#path-3-outside-1_2162_107999)"/>
</g>
<g filter="url(#filter2_bd_2162_107999)">
<mask id="path-5-inside-2_2162_107999" fill="white">
<path fill-rule="evenodd" clip-rule="evenodd" d="M36.7658 28.9389C37.4024 28.9389 37.9191 28.4392 37.9191 27.8236V25.0698C37.9191 24.4542 37.4024 23.9545 36.7658 23.9545H28.0134C27.5152 22.3679 26.0052 21.2021 24.2031 21.2021C21.9981 21.2021 20.2036 22.9374 20.2036 25.0698C20.2036 27.2036 21.9981 28.9389 24.2031 28.9389C26.0052 28.9389 27.5152 27.7731 28.0134 26.185H31.261V27.8236C31.261 28.4392 31.7776 28.9389 32.4142 28.9389C33.0508 28.9389 33.5675 28.4392 33.5675 27.8236V26.185H35.6126V27.8236C35.6126 28.4392 36.1292 28.9389 36.7658 28.9389ZM22.5085 25.0697C22.5085 24.1656 23.2697 23.431 24.2031 23.431C25.1364 23.431 25.8976 24.1656 25.8976 25.0697C25.8976 25.9722 25.1364 26.7068 24.2031 26.7068C23.2697 26.7068 22.5085 25.9722 22.5085 25.0697Z"/>
</mask>
<path fill-rule="evenodd" clip-rule="evenodd" d="M36.7658 28.9389C37.4024 28.9389 37.9191 28.4392 37.9191 27.8236V25.0698C37.9191 24.4542 37.4024 23.9545 36.7658 23.9545H28.0134C27.5152 22.3679 26.0052 21.2021 24.2031 21.2021C21.9981 21.2021 20.2036 22.9374 20.2036 25.0698C20.2036 27.2036 21.9981 28.9389 24.2031 28.9389C26.0052 28.9389 27.5152 27.7731 28.0134 26.185H31.261V27.8236C31.261 28.4392 31.7776 28.9389 32.4142 28.9389C33.0508 28.9389 33.5675 28.4392 33.5675 27.8236V26.185H35.6126V27.8236C35.6126 28.4392 36.1292 28.9389 36.7658 28.9389ZM22.5085 25.0697C22.5085 24.1656 23.2697 23.431 24.2031 23.431C25.1364 23.431 25.8976 24.1656 25.8976 25.0697C25.8976 25.9722 25.1364 26.7068 24.2031 26.7068C23.2697 26.7068 22.5085 25.9722 22.5085 25.0697Z" fill="url(#paint2_linear_2162_107999)"/>
<path d="M28.0134 23.9545L27.9317 23.9802L27.9505 24.0402H28.0134V23.9545ZM28.0134 26.185V26.0993H27.9505L27.9317 26.1593L28.0134 26.185ZM31.261 26.185H31.3467V26.0993H31.261V26.185ZM33.5675 26.185V26.0993H33.4818V26.185H33.5675ZM35.6126 26.185H35.6983V26.0993H35.6126V26.185ZM37.8334 27.8236C37.8334 28.3892 37.3578 28.8531 36.7658 28.8531V29.0246C37.447 29.0246 38.0048 28.4893 38.0048 27.8236H37.8334ZM37.8334 25.0698V27.8236H38.0048V25.0698H37.8334ZM36.7658 24.0402C37.3578 24.0402 37.8334 24.5042 37.8334 25.0698H38.0048C38.0048 24.4041 37.447 23.8688 36.7658 23.8688V24.0402ZM28.0134 24.0402H36.7658V23.8688H28.0134V24.0402ZM24.2031 21.2879C25.9676 21.2879 27.4446 22.4291 27.9317 23.9802L28.0952 23.9289C27.5858 22.3067 26.0429 21.1164 24.2031 21.1164V21.2879ZM20.2893 25.0698C20.2893 22.9875 22.0427 21.2879 24.2031 21.2879V21.1164C21.9535 21.1164 20.1179 22.8874 20.1179 25.0698H20.2893ZM24.2031 28.8531C22.0427 28.8531 20.2893 27.1536 20.2893 25.0698H20.1179C20.1179 27.2536 21.9534 29.0246 24.2031 29.0246V28.8531ZM27.9317 26.1593C27.4446 27.7119 25.9676 28.8531 24.2031 28.8531V29.0246C26.0429 29.0246 27.5859 27.8343 28.0952 26.2106L27.9317 26.1593ZM31.261 26.0993H28.0134V26.2707H31.261V26.0993ZM31.3467 27.8236V26.185H31.1753V27.8236H31.3467ZM32.4142 28.8531C31.8223 28.8531 31.3467 28.3892 31.3467 27.8236H31.1753C31.1753 28.4893 31.733 29.0246 32.4142 29.0246V28.8531ZM33.4818 27.8236C33.4818 28.3892 33.0062 28.8531 32.4142 28.8531V29.0246C33.0954 29.0246 33.6532 28.4893 33.6532 27.8236H33.4818ZM33.4818 26.185V27.8236H33.6532V26.185H33.4818ZM35.6126 26.0993H33.5675V26.2707H35.6126V26.0993ZM35.6983 27.8236V26.185H35.5269V27.8236H35.6983ZM36.7658 28.8531C36.1739 28.8531 35.6983 28.3892 35.6983 27.8236H35.5269C35.5269 28.4893 36.0846 29.0246 36.7658 29.0246V28.8531ZM24.2031 23.3453C23.2251 23.3453 22.4228 24.1155 22.4228 25.0697H22.5943C22.5943 24.2156 23.3142 23.5167 24.2031 23.5167V23.3453ZM25.9833 25.0697C25.9833 24.1155 25.181 23.3453 24.2031 23.3453V23.5167C25.0919 23.5167 25.8119 24.2156 25.8119 25.0697H25.9833ZM24.2031 26.7925C25.1809 26.7925 25.9833 26.0224 25.9833 25.0697H25.8119C25.8119 25.9221 25.0919 26.6211 24.2031 26.6211V26.7925ZM22.4228 25.0697C22.4228 26.0224 23.2252 26.7925 24.2031 26.7925V26.6211C23.3142 26.6211 22.5943 25.9221 22.5943 25.0697H22.4228Z" fill="url(#paint3_linear_2162_107999)" fill-opacity="0.5" mask="url(#path-5-inside-2_2162_107999)"/>
</g>
<defs>
<filter id="filter0_f_2162_107999" x="1.71452" y="0.180589" width="39.2906" height="38.1051" filterUnits="userSpaceOnUse" color-interpolation-filters="sRGB">
<feFlood flood-opacity="0" result="BackgroundImageFix"/>
<feBlend mode="normal" in="SourceGraphic" in2="BackgroundImageFix" result="shape"/>
<feGaussianBlur stdDeviation="3.64274" result="effect1_foregroundBlur_2162_107999"/>
</filter>
<filter id="filter1_b_2162_107999" x="3.03262" y="-0.453346" width="52.1812" height="51.1672" filterUnits="userSpaceOnUse" color-interpolation-filters="sRGB">
<feFlood flood-opacity="0" result="BackgroundImageFix"/>
<feGaussianBlur in="BackgroundImage" stdDeviation="5.14269"/>
<feComposite in2="SourceAlpha" operator="in" result="effect1_backgroundBlur_2162_107999"/>
<feBlend mode="normal" in="SourceGraphic" in2="effect1_backgroundBlur_2162_107999" result="shape"/>
</filter>
<filter id="filter2_bd_2162_107999" x="13.7753" y="14.7738" width="30.5722" height="20.5935" filterUnits="userSpaceOnUse" color-interpolation-filters="sRGB">
<feFlood flood-opacity="0" result="BackgroundImageFix"/>
<feGaussianBlur in="BackgroundImage" stdDeviation="3.21418"/>
<feComposite in2="SourceAlpha" operator="in" result="effect1_backgroundBlur_2162_107999"/>
<feColorMatrix in="SourceAlpha" type="matrix" values="0 0 0 0 0 0 0 0 0 0 0 0 0 0 0 0 0 0 127 0" result="hardAlpha"/>
<feOffset dx="2.14279" dy="2.14279"/>
<feGaussianBlur stdDeviation="2.14279"/>
<feColorMatrix type="matrix" values="0 0 0 0 0.454902 0 0 0 0 0.870588 0 0 0 0 0.376471 0 0 0 0.5 0"/>
<feBlend mode="normal" in2="effect1_backgroundBlur_2162_107999" result="effect2_dropShadow_2162_107999"/>
<feBlend mode="normal" in="SourceGraphic" in2="effect2_dropShadow_2162_107999" result="shape"/>
</filter>
<linearGradient id="paint0_linear_2162_107999" x1="28.8712" y1="-0.0313779" x2="18.2832" y2="30.5188" gradientUnits="userSpaceOnUse">
<stop stop-color="#5645F5"/>
<stop offset="1" stop-color="#5333FF"/>
</linearGradient>
<linearGradient id="paint1_linear_2162_107999" x1="18.642" y1="13.7252" x2="37.469" y2="37.8378" gradientUnits="userSpaceOnUse">
<stop stop-color="white" stop-opacity="0.25"/>
<stop offset="1" stop-color="white" stop-opacity="0"/>
</linearGradient>
<linearGradient id="paint2_linear_2162_107999" x1="36.6631" y1="22.5992" x2="17.0182" y2="24.0659" gradientUnits="userSpaceOnUse">
<stop stop-color="white"/>
<stop offset="1" stop-color="white" stop-opacity="0.2"/>
</linearGradient>
<linearGradient id="paint3_linear_2162_107999" x1="22.112" y1="23.7974" x2="37.1529" y2="23.9876" gradientUnits="userSpaceOnUse">
<stop stop-color="white"/>
<stop offset="1" stop-color="white" stop-opacity="0"/>
</linearGradient>
</defs>
</svg>
