<svg width="47" height="45" viewBox="0 0 47 45" fill="none" xmlns="http://www.w3.org/2000/svg">
<path d="M35.5077 9.16863L23.2651 6.0437C18.4782 4.82183 14.3327 7.29257 12.9553 12.1899L9.77649 23.4923C8.40302 28.3758 10.6965 32.4901 15.4834 33.7119L27.726 36.8369C32.5129 38.0587 36.6443 35.5844 38.0177 30.701L41.1966 19.3985C42.5739 14.5012 40.2946 10.3905 35.5077 9.16863" fill="url(#paint0_linear_2162_107979)"/>
<g opacity="0.5" filter="url(#filter0_f_2162_107979)">
<rect width="19.9804" height="20.4374" rx="4.72527" transform="matrix(0.309847 -0.950786 0.956372 0.292152 12.5902 27.8118)" fill="#5645F5"/>
</g>
<g filter="url(#filter1_b_2162_107979)">
<mask id="path-3-outside-1_2162_107979" maskUnits="userSpaceOnUse" x="-0.5" y="10.5496" width="35" height="34" fill="black">
<rect fill="white" x="-0.5" y="10.5496" width="35" height="34"/>
<path d="M24.5315 11.5496H10.002C4.3209 11.5496 0.5 15.4112 0.5 21.1549V34.4108C0.5 40.1383 4.3209 43.9999 10.002 43.9999H24.5315C30.2125 43.9999 34.0167 40.1383 34.0167 34.4108V21.1549C34.0167 15.4112 30.2125 11.5496 24.5315 11.5496"/>
</mask>
<path d="M24.5315 11.5496H10.002C4.3209 11.5496 0.5 15.4112 0.5 21.1549V34.4108C0.5 40.1383 4.3209 43.9999 10.002 43.9999H24.5315C30.2125 43.9999 34.0167 40.1383 34.0167 34.4108V21.1549C34.0167 15.4112 30.2125 11.5496 24.5315 11.5496" fill="#5645F5" fill-opacity="0.35"/>
<path d="M24.5315 12.0221C24.7924 12.0221 25.004 11.8105 25.004 11.5496C25.004 11.2886 24.7924 11.077 24.5315 11.077V12.0221ZM24.5315 11.077C24.2705 11.077 24.0589 11.2886 24.0589 11.5496C24.0589 11.8105 24.2705 12.0221 24.5315 12.0221V11.077ZM24.5315 11.077H10.002V12.0221H24.5315V11.077ZM10.002 11.077C7.05149 11.077 4.54959 12.082 2.78467 13.866C1.02017 15.6496 0.0274725 18.1761 0.0274725 21.1549H0.972527C0.972527 18.3899 1.89028 16.1138 3.4565 14.5306C5.0223 12.9479 7.2714 12.0221 10.002 12.0221V11.077ZM0.0274725 21.1549V34.4108H0.972527V21.1549H0.0274725ZM0.0274725 34.4108C0.0274725 37.3818 1.0204 39.9043 2.78487 41.6857C4.54973 43.4675 7.0515 44.4724 10.002 44.4724V43.5274C7.27138 43.5274 5.02216 42.6015 3.4563 41.0207C1.89006 39.4394 0.972527 37.1673 0.972527 34.4108H0.0274725ZM10.002 44.4724H24.5315V43.5274H10.002V44.4724ZM24.5315 44.4724C27.482 44.4724 29.9798 43.4674 31.7406 41.6853C33.5009 39.9037 34.4892 37.3812 34.4892 34.4108H33.5442C33.5442 37.1679 32.6304 39.44 31.0683 41.0211C29.5068 42.6016 27.262 43.5274 24.5315 43.5274V44.4724ZM34.4892 34.4108V21.1549H33.5442V34.4108H34.4892ZM34.4892 21.1549C34.4892 18.1767 33.5011 15.6502 31.7408 13.8664C29.98 12.0821 27.482 11.077 24.5315 11.077V12.0221C27.262 12.0221 29.5066 12.9479 31.0681 14.5302C32.6302 16.1132 33.5442 18.3893 33.5442 21.1549H34.4892Z" fill="url(#paint1_linear_2162_107979)" mask="url(#path-3-outside-1_2162_107979)"/>
</g>
<g filter="url(#filter2_bd_2162_107979)">
<mask id="path-5-inside-2_2162_107979" fill="white">
<path fill-rule="evenodd" clip-rule="evenodd" d="M7.73938 27.775C7.73938 28.8458 8.64433 29.722 9.75038 29.722C10.8564 29.722 11.7614 28.8458 11.7614 27.775C11.7614 26.7041 10.8564 25.8296 9.75038 25.8296C8.64433 25.8296 7.73938 26.7041 7.73938 27.775ZM17.2584 29.7223C16.1524 29.7223 15.2474 28.8461 15.2474 27.7753C15.2474 26.7044 16.1524 25.8299 17.2584 25.8299C18.3645 25.8299 19.2694 26.7044 19.2694 27.7753C19.2694 28.8461 18.3645 29.7223 17.2584 29.7223ZM24.7662 29.7226C23.6601 29.7226 22.7552 28.8464 22.7552 27.7756C22.7552 26.7047 23.6601 25.8302 24.7662 25.8302C25.8722 25.8302 26.7604 26.7047 26.7604 27.7756C26.7604 28.8464 25.8722 29.7226 24.7662 29.7226Z"/>
</mask>
<path fill-rule="evenodd" clip-rule="evenodd" d="M7.73938 27.775C7.73938 28.8458 8.64433 29.722 9.75038 29.722C10.8564 29.722 11.7614 28.8458 11.7614 27.775C11.7614 26.7041 10.8564 25.8296 9.75038 25.8296C8.64433 25.8296 7.73938 26.7041 7.73938 27.775ZM17.2584 29.7223C16.1524 29.7223 15.2474 28.8461 15.2474 27.7753C15.2474 26.7044 16.1524 25.8299 17.2584 25.8299C18.3645 25.8299 19.2694 26.7044 19.2694 27.7753C19.2694 28.8461 18.3645 29.7223 17.2584 29.7223ZM24.7662 29.7226C23.6601 29.7226 22.7552 28.8464 22.7552 27.7756C22.7552 26.7047 23.6601 25.8302 24.7662 25.8302C25.8722 25.8302 26.7604 26.7047 26.7604 27.7756C26.7604 28.8464 25.8722 29.7226 24.7662 29.7226Z" fill="url(#paint2_linear_2162_107979)"/>
<path d="M9.75038 29.533C8.74291 29.533 7.92839 28.7357 7.92839 27.775H7.55037C7.55037 28.956 8.54575 29.911 9.75038 29.911V29.533ZM11.5724 27.775C11.5724 28.7357 10.7579 29.533 9.75038 29.533V29.911C10.955 29.911 11.9504 28.956 11.9504 27.775H11.5724ZM9.75038 26.0186C10.7581 26.0186 11.5724 26.8144 11.5724 27.775H11.9504C11.9504 26.5938 10.9548 25.6406 9.75038 25.6406V26.0186ZM7.92839 27.775C7.92839 26.8144 8.7427 26.0186 9.75038 26.0186V25.6406C8.54596 25.6406 7.55037 26.5938 7.55037 27.775H7.92839ZM15.0584 27.7753C15.0584 28.9562 16.0538 29.9113 17.2584 29.9113V29.5333C16.251 29.5333 15.4365 28.736 15.4365 27.7753H15.0584ZM17.2584 25.6409C16.054 25.6409 15.0584 26.5941 15.0584 27.7753H15.4365C15.4365 26.8147 16.2508 26.0189 17.2584 26.0189V25.6409ZM19.4585 27.7753C19.4585 26.5941 18.4629 25.6409 17.2584 25.6409V26.0189C18.2661 26.0189 19.0804 26.8147 19.0804 27.7753H19.4585ZM17.2584 29.9113C18.4631 29.9113 19.4585 28.9562 19.4585 27.7753H19.0804C19.0804 28.736 18.2659 29.5333 17.2584 29.5333V29.9113ZM22.5662 27.7756C22.5662 28.9565 23.5615 29.9116 24.7662 29.9116V29.5336C23.7587 29.5336 22.9442 28.7363 22.9442 27.7756H22.5662ZM24.7662 25.6412C23.5617 25.6412 22.5662 26.5944 22.5662 27.7756H22.9442C22.9442 26.815 23.7585 26.0192 24.7662 26.0192V25.6412ZM26.9494 27.7756C26.9494 26.5964 25.9727 25.6412 24.7662 25.6412V26.0192C25.7718 26.0192 26.5714 26.813 26.5714 27.7756H26.9494ZM24.7662 29.9116C25.9729 29.9116 26.9494 28.9545 26.9494 27.7756H26.5714C26.5714 28.7384 25.7715 29.5336 24.7662 29.5336V29.9116Z" fill="url(#paint3_linear_2162_107979)" mask="url(#path-5-inside-2_2162_107979)"/>
</g>
<defs>
<filter id="filter0_f_2162_107979" x="4.37123" y="0.536023" width="42.1747" height="41.5251" filterUnits="userSpaceOnUse" color-interpolation-filters="sRGB">
<feFlood flood-opacity="0" result="BackgroundImageFix"/>
<feBlend mode="normal" in="SourceGraphic" in2="BackgroundImageFix" result="shape"/>
<feGaussianBlur stdDeviation="4.72527" result="effect1_foregroundBlur_2162_107979"/>
</filter>
<filter id="filter1_b_2162_107979" x="-11.3132" y="-0.263511" width="57.1431" height="56.0766" filterUnits="userSpaceOnUse" color-interpolation-filters="sRGB">
<feFlood flood-opacity="0" result="BackgroundImageFix"/>
<feGaussianBlur in="BackgroundImage" stdDeviation="5.67033"/>
<feComposite in2="SourceAlpha" operator="in" result="effect1_backgroundBlur_2162_107979"/>
<feBlend mode="normal" in="SourceGraphic" in2="effect1_backgroundBlur_2162_107979" result="shape"/>
</filter>
<filter id="filter2_bd_2162_107979" x="0.651468" y="18.7417" width="33.1968" height="18.0689" filterUnits="userSpaceOnUse" color-interpolation-filters="sRGB">
<feFlood flood-opacity="0" result="BackgroundImageFix"/>
<feGaussianBlur in="BackgroundImage" stdDeviation="3.54396"/>
<feComposite in2="SourceAlpha" operator="in" result="effect1_backgroundBlur_2162_107979"/>
<feColorMatrix in="SourceAlpha" type="matrix" values="0 0 0 0 0 0 0 0 0 0 0 0 0 0 0 0 0 0 127 0" result="hardAlpha"/>
<feOffset dx="2.36264" dy="2.36264"/>
<feGaussianBlur stdDeviation="2.36264"/>
<feColorMatrix type="matrix" values="0 0 0 0 0.577356 0 0 0 0 0.359375 0 0 0 0 0.9375 0 0 0 0.5 0"/>
<feBlend mode="normal" in2="effect1_backgroundBlur_2162_107979" result="effect2_dropShadow_2162_107979"/>
<feBlend mode="normal" in="SourceGraphic" in2="effect2_dropShadow_2162_107979" result="shape"/>
</filter>
<linearGradient id="paint0_linear_2162_107979" x1="29.3279" y1="7.56536" x2="22.0995" y2="35.4284" gradientUnits="userSpaceOnUse">
<stop stop-color="#5645F5"/>
<stop offset="1" stop-color="#9F66FF"/>
</linearGradient>
<linearGradient id="paint1_linear_2162_107979" x1="5.83531" y1="15.3301" x2="26.3844" y2="41.6169" gradientUnits="userSpaceOnUse">
<stop stop-color="white" stop-opacity="0.25"/>
<stop offset="1" stop-color="white" stop-opacity="0"/>
</linearGradient>
<linearGradient id="paint2_linear_2162_107979" x1="25.412" y1="26.5325" x2="4.72667" y2="29.828" gradientUnits="userSpaceOnUse">
<stop stop-color="white"/>
<stop offset="1" stop-color="white" stop-opacity="0.2"/>
</linearGradient>
<linearGradient id="paint3_linear_2162_107979" x1="10.7672" y1="26.2831" x2="11.5844" y2="31.2285" gradientUnits="userSpaceOnUse">
<stop stop-color="white" stop-opacity="0.25"/>
<stop offset="1" stop-color="white" stop-opacity="0"/>
</linearGradient>
</defs>
</svg>
